<?xml version="1.0" standalone="no"?>
<!DOCTYPE svg PUBLIC "-//W3C//DTD SVG 20010904//EN"
 "http://www.w3.org/TR/2001/REC-SVG-20010904/DTD/svg10.dtd">
<svg version="1.0" xmlns="http://www.w3.org/2000/svg"
 width="4978.000000pt" height="4500.000000pt" viewBox="0 0 4978.000000 4500.000000"
 preserveAspectRatio="xMidYMid meet">

<g transform="translate(0.000000,4500.000000) scale(0.100000,-0.100000)"
fill="#000000" stroke="none">
<path d="M36875 28067 c-54 -18 -125 -55 -125 -66 0 -4 40 -35 88 -69 95 -66
294 -221 377 -295 11 -10 55 -48 97 -85 93 -81 363 -353 474 -477 761 -858
1320 -2031 1473 -3090 132 -912 -72 -1600 -588 -1988 -85 -64 -261 -150 -379
-187 -469 -144 -1046 -59 -1647 242 -152 76 -245 130 -417 240 -136 86 -138
87 -138 60 0 -16 9 -127 20 -248 105 -1125 277 -2236 506 -3249 51 -226 193
-794 203 -811 4 -7 60 24 152 85 598 395 1163 502 1534 290 146 -82 280 -240
354 -416 241 -567 17 -1616 -541 -2522 -48 -79 -88 -147 -88 -152 0 -9 89 -29
133 -29 88 0 208 50 293 122 115 97 210 229 416 579 870 1473 1328 3154 1328
4868 0 1089 -175 2126 -531 3145 -381 1089 -956 2103 -1688 2981 -206 247
-353 408 -581 635 -256 257 -422 408 -470 428 -48 20 -204 26 -255 9z m3123
-6178 c165 -128 263 -747 232 -1466 -27 -651 -119 -1166 -259 -1458 -74 -153
-145 -219 -216 -201 -122 31 -218 315 -267 796 -17 161 -16 778 0 960 41 448
115 844 203 1081 98 267 205 368 307 288z"/>
<path d="M13060 23968 l0 -303 -30 55 c-35 64 -91 118 -158 151 -42 22 -61 24
-177 24 -112 0 -136 -3 -177 -22 -111 -51 -199 -175 -234 -329 -23 -104 -15
-300 15 -396 63 -197 223 -310 421 -295 140 10 238 66 300 172 l35 59 3 -102
c3 -101 3 -102 27 -102 l25 0 0 695 0 695 -25 0 -25 0 0 -302z m-240 -137
c147 -56 225 -192 237 -411 13 -239 -70 -424 -219 -490 -70 -31 -164 -37 -243
-15 -119 32 -189 109 -242 263 -22 65 -26 95 -26 192 0 251 94 419 263 471 51
15 178 10 230 -10z"/>
<path d="M15680 23975 c0 -169 -4 -295 -9 -295 -5 0 -14 14 -20 30 -16 47
-106 135 -164 161 -46 21 -67 24 -177 24 -117 0 -129 -2 -183 -29 -99 -48
-171 -138 -210 -261 -19 -60 -22 -93 -22 -230 0 -137 3 -170 22 -230 40 -127
125 -225 232 -267 75 -29 231 -32 309 -5 62 22 148 97 189 165 l28 47 3 -102
c3 -102 3 -103 27 -103 l25 0 0 695 0 695 -25 0 -25 0 0 -295z m-218 -154
c137 -66 212 -225 212 -446 -1 -127 -19 -208 -66 -297 -65 -122 -187 -187
-327 -175 -156 13 -250 96 -308 272 -33 102 -37 272 -9 375 38 141 128 254
225 285 69 22 213 15 273 -14z"/>
<path d="M17220 23973 l0 -298 -29 50 c-35 62 -98 120 -160 149 -39 18 -64 21
-176 21 -129 0 -130 0 -193 -34 -154 -83 -226 -239 -226 -486 0 -295 109 -469
322 -514 182 -38 350 29 433 174 l29 50 0 -102 0 -103 30 0 30 0 0 695 0 695
-30 0 -30 0 0 -297z m-241 -140 c71 -22 131 -78 174 -161 48 -90 67 -174 67
-294 0 -121 -13 -183 -55 -273 -41 -87 -91 -140 -164 -174 -47 -22 -70 -26
-146 -26 -76 0 -99 4 -147 27 -142 66 -218 220 -218 443 0 55 7 128 15 163 33
138 117 252 216 290 68 27 186 29 258 5z"/>
<path d="M9890 23520 l0 -640 30 0 30 0 0 475 0 475 95 0 c95 0 95 0 95 25 0
25 0 25 -95 25 l-95 0 0 140 0 140 -30 0 -30 0 0 -640z"/>
<path d="M22950 23520 l0 -640 30 0 30 0 0 475 0 475 100 0 100 0 0 25 0 25
-100 0 -100 0 0 140 0 140 -30 0 -30 0 0 -640z"/>
<path d="M25040 23520 l0 -640 25 0 25 0 0 475 0 475 100 0 100 0 0 25 0 25
-100 0 -100 0 0 140 0 140 -25 0 -25 0 0 -640z"/>
<path d="M9218 23882 c-119 -43 -188 -132 -188 -241 1 -104 56 -178 171 -226
30 -13 111 -40 180 -60 137 -40 211 -76 239 -114 30 -43 41 -99 29 -150 -18
-80 -52 -119 -139 -159 -46 -22 -69 -26 -140 -26 -104 0 -171 26 -228 88 -36
39 -82 136 -82 171 0 10 -10 15 -29 15 -28 0 -28 0 -20 -47 16 -102 55 -165
133 -217 123 -82 289 -87 428 -14 92 49 138 127 138 235 0 95 -43 164 -130
208 -25 12 -110 43 -190 68 -80 25 -166 59 -191 76 -89 56 -126 135 -99 216
30 90 123 145 248 145 146 0 221 -50 262 -171 16 -46 23 -55 45 -57 27 -3 27
-2 21 35 -18 97 -102 196 -193 227 -63 22 -203 21 -265 -2z"/>
<path d="M10523 23886 c-117 -38 -208 -139 -253 -282 -30 -95 -38 -289 -16
-394 44 -207 160 -327 343 -353 175 -26 320 38 396 172 l32 56 3 -102 c3 -102
3 -103 27 -103 l25 0 0 500 0 500 -25 0 -25 0 0 -112 0 -112 -36 60 c-48 79
-85 116 -152 150 -51 26 -68 29 -167 31 -72 2 -125 -2 -152 -11z m273 -57
c152 -57 245 -257 230 -494 -13 -205 -91 -350 -217 -405 -122 -52 -280 -30
-372 50 -152 134 -191 468 -80 687 35 70 116 144 179 166 72 24 190 22 260 -4z"/>
<path d="M11592 23886 c-61 -20 -114 -59 -153 -114 l-34 -47 -3 78 -3 77 -29
0 -30 0 0 -500 0 -500 30 0 30 0 0 323 c0 177 5 351 10 386 19 113 68 184 158
228 51 25 68 28 157 28 105 0 141 -11 193 -59 72 -64 82 -135 82 -558 l0 -348
31 0 30 0 -4 388 c-4 438 -7 455 -79 537 -64 73 -104 89 -233 92 -74 2 -124
-2 -153 -11z"/>
<path d="M13599 23877 c-128 -53 -207 -155 -243 -314 -20 -91 -21 -285 -1
-369 43 -184 149 -300 303 -333 176 -37 340 22 422 152 l40 62 0 -97 0 -98 30
0 30 0 0 500 0 500 -30 0 -30 0 0 -107 0 -108 -31 52 c-40 70 -117 137 -185
162 -80 31 -228 29 -305 -2z m317 -59 c92 -48 170 -163 194 -287 15 -80 12
-252 -6 -331 -15 -67 -64 -162 -107 -208 -12 -13 -51 -37 -86 -55 -59 -29 -74
-32 -156 -32 -112 1 -174 25 -239 95 -83 89 -126 217 -126 374 1 227 87 398
231 455 79 31 223 26 295 -11z"/>
<path d="M18708 23867 c-46 -24 -74 -47 -103 -86 l-40 -54 -3 76 c-3 74 -4 77
-27 77 l-25 0 0 -500 0 -500 25 0 25 0 0 313 c1 400 14 484 90 571 46 51 99
76 180 83 123 10 205 -31 252 -124 23 -48 23 -52 26 -445 l3 -398 29 0 29 0 3
363 c4 342 5 366 26 429 18 53 32 75 69 107 101 89 267 96 362 15 75 -64 75
-69 79 -516 l3 -398 30 0 30 0 -3 393 c-3 357 -5 397 -23 447 -26 74 -103 154
-165 170 -68 18 -216 9 -265 -17 -45 -23 -128 -108 -147 -148 -11 -25 -12 -24
-40 35 -50 103 -118 139 -265 140 -84 0 -96 -3 -155 -33z"/>
<path d="M20280 23891 c-50 -15 -86 -40 -133 -90 -26 -27 -47 -55 -47 -61 0
-5 -4 -10 -10 -10 -6 0 -10 32 -10 75 0 73 -1 75 -25 75 l-25 0 0 -500 0 -500
24 0 24 0 4 363 c5 401 9 428 71 509 18 23 54 53 82 67 42 22 62 26 140 26
104 0 155 -20 201 -80 48 -64 54 -116 54 -517 l0 -368 29 0 30 0 3 368 c5 427
8 444 87 523 96 97 283 107 375 21 72 -68 86 -160 86 -588 l0 -324 25 0 25 0
0 348 c0 361 -7 442 -42 524 -25 58 -91 120 -146 136 -53 16 -188 14 -235 -2
-60 -22 -116 -66 -156 -123 -20 -29 -38 -52 -41 -53 -4 0 -12 16 -19 37 -20
55 -85 119 -138 137 -49 17 -187 21 -233 7z"/>
<path d="M21542 23518 c4 -323 8 -391 22 -435 24 -76 72 -133 140 -168 54 -27
67 -29 160 -30 55 0 119 6 142 13 59 17 127 66 160 114 l29 41 3 -130 c2 -112
0 -139 -18 -185 -39 -105 -122 -176 -235 -198 -177 -36 -334 48 -359 193 -6
31 -11 37 -32 37 -25 0 -25 -2 -19 -42 24 -152 141 -238 324 -238 220 0 351
101 386 297 11 60 14 198 15 596 l0 517 -29 0 -30 0 -3 -372 c-3 -356 -4 -375
-24 -419 -31 -66 -86 -123 -147 -150 -43 -20 -68 -24 -152 -24 -88 0 -107 3
-150 26 -28 14 -60 40 -73 59 -48 72 -52 107 -52 507 l0 373 -31 0 -31 0 4
-382z"/>
<path d="M23558 23881 c-142 -56 -239 -214 -258 -419 -21 -225 39 -419 163
-528 65 -57 133 -79 242 -78 145 1 254 59 327 173 33 53 35 72 9 88 -18 11
-22 8 -40 -31 -33 -67 -87 -122 -149 -153 -49 -24 -69 -28 -142 -28 -130 0
-204 40 -275 150 -43 66 -73 159 -81 245 l-7 70 377 0 376 0 0 83 c0 200 -98
371 -243 425 -76 29 -229 30 -299 3z m265 -47 c64 -22 132 -85 168 -157 30
-59 58 -165 59 -219 l0 -28 -351 0 -351 0 7 43 c29 186 108 309 232 357 60 24
173 26 236 4z"/>
<path d="M14440 23380 l0 -500 25 0 25 0 0 323 c0 424 7 465 93 548 54 52 79
65 149 73 45 6 60 12 73 33 l17 26 -58 -7 c-33 -4 -75 -11 -94 -16 -51 -14
-125 -63 -146 -99 -10 -17 -22 -31 -26 -31 -4 0 -8 34 -8 75 0 73 -1 75 -25
75 l-25 0 0 -500z"/>
<path d="M17542 23483 c3 -432 4 -438 62 -521 35 -50 85 -82 154 -98 157 -37
319 9 395 111 17 24 35 44 40 45 4 0 7 -31 7 -70 0 -63 2 -70 20 -70 20 0 20
7 20 500 0 481 -1 500 -19 500 -17 0 -19 -17 -24 -342 -6 -368 -12 -419 -60
-500 -53 -91 -135 -130 -272 -132 -79 -1 -97 2 -140 25 -29 14 -62 42 -78 65
-52 75 -57 114 -57 517 l0 367 -25 0 -26 0 3 -397z"/>
<path d="M24216 23853 c9 -16 84 -124 166 -240 81 -117 148 -215 148 -218 0
-3 -64 -99 -143 -213 -79 -114 -158 -228 -176 -254 l-32 -48 34 0 c34 0 38 5
193 231 l158 232 18 -23 c10 -13 84 -117 164 -232 134 -192 147 -208 175 -208
l30 0 -74 108 c-109 158 -262 385 -270 398 -4 6 6 29 21 50 15 22 90 130 165
242 l137 202 -33 0 c-32 0 -38 -7 -178 -215 -79 -118 -148 -213 -154 -211 -5
1 -76 98 -158 214 -138 197 -150 212 -179 212 l-30 0 18 -27z"/>
<path d="M22990 21931 c-227 -51 -408 -156 -574 -332 -217 -231 -357 -546
-418 -943 -28 -186 -31 -547 -5 -736 89 -640 339 -1183 722 -1565 254 -254
542 -416 855 -481 106 -22 335 -25 435 -5 85 17 220 63 295 101 374 190 652
649 732 1205 20 137 17 541 -5 690 -58 394 -200 794 -395 1109 -310 503 -703
830 -1132 943 -132 36 -383 42 -510 14z"/>
<path d="M37795 17610 c-237 -37 -522 -180 -795 -398 -127 -102 -375 -351
-488 -490 -365 -449 -613 -934 -707 -1383 -38 -178 -45 -425 -17 -559 36 -172
90 -277 191 -376 239 -233 682 -174 1176 158 580 389 1068 1076 1274 1793 72
252 99 548 67 734 -46 265 -188 441 -406 505 -68 20 -215 28 -295 16z"/>
<path d="M32930 10114 c-19 -2 -66 -8 -105 -14 -38 -6 -87 -12 -108 -15 -65
-7 -157 -37 -157 -50 0 -7 -17 -15 -39 -19 -32 -5 -40 -11 -44 -33 -8 -42 0
-50 76 -75 67 -21 88 -23 302 -22 200 0 244 3 340 23 61 13 128 26 150 28 22
3 44 9 50 14 5 5 17 9 27 9 10 0 18 4 18 10 0 5 18 15 40 21 30 9 40 17 40 33
0 23 -48 56 -83 56 -12 0 -41 9 -63 19 -36 16 -66 19 -225 19 -101 -1 -200 -2
-219 -4z"/>
</g>
</svg>
